<svg xmlns="http://www.w3.org/2000/svg" viewBox="0 0 22 18.343">
  <g data-name="email icon">
    <g data-name="Union 28" fill="#bdc1c3" stroke-linecap="round">
      <path d="M18.3135395 17.842844H3.6852391c-1.75591 0-3.18444-1.4287996-3.18444-3.1850405V3.7297775c-.0014743-.0414705-.0009442-.0803723.0016044-.118083.019097-.8322485.3567626-1.6121102.9517955-2.1974006.59941-.58959 1.39174-.91429 2.23104-.91429h14.6283005c.8397503 0 1.6324291.32464 2.2320194.91413.595255.585223.9330197 1.3650521.9520417 2.197247.002531.0379132.0030536.0770375.0015983.1187586v10.927664c0 1.7562409-1.429079 3.1850405-3.1856594 3.1850405ZM3.2147391 6.29144v8.3663635c0 .25943.21107.4704905.4705.4704905h14.6283004c.260109 0 .4717197-.2110605.4717197-.4704905V6.2914433l-7.0078306 4.9043804c-.2217598.15843-.49969.24722-.7786493.24722-.2773905 0-.55445-.08879-.7801504-.2500095L3.214739 6.29144Zm.355663-3.0626533 7.428421 5.1990025 7.4303132-5.19878c-.0372715-.0094803-.0760365-.0144554-.1155968-.0144554H3.6852391c-.0393174 0-.0778303.0048993-.114837.014233Z"/>
      <path d="M18.3135395 17.342844c1.4820004 0 2.6856594-1.20366 2.6856594-2.6850405V3.720454c.0012207-.02808.0012207-.0567701-.0012207-.08546-.0268593-1.45819-1.2195396-2.63499-2.6844387-2.63499H3.6852391c-1.46368 0-2.65636 1.1768-2.68322 2.63561-.00244.0280699-.00244.05676-.00122.0842299v10.9379596c0 1.4813805 1.20367 2.6850405 2.68444 2.6850405h14.6283004M2.7147391 5.331234l7.7945201 5.4549398c.1452694.1037703.31983.15687.4895201.15687.1721296 0 .3466902-.0530997.4919596-.15687l7.7945203-5.4549398v9.3265695c0 .5359106-.43581.9704905-.9717197.9704905H3.6852391c-.5346902 0-.9705-.4345799-.9705-.9704905V5.331234m.9705-2.61668h14.6283004c.399189 0 .7397804.2398699.8899288.5829099l-8.204689 5.7405896L2.7965291 3.297464c.14893-.34304.49075-.58291.88871-.58291M18.3135395 18.342844H3.6852391c-2.03161 0-3.68444-1.6531-3.68444-3.6850405V3.7379763c-.0015537-.0511963-.000897-.1002424.002002-.1484551.0247147-.9589951.4149806-1.857122 1.100778-2.5316873.69351-.68215 1.61036-1.05783 2.58166-1.05783h14.6283004c.9717102 0 1.8888798.37559 2.5825596 1.05758.6861229.6745712 1.0765266 1.5728143 1.1011124 2.5318898.0028724.0483041.0035266.097458.0019874.1487928v10.919537c0 2.0319405-1.6533794 3.6850405-3.6856594 3.6850405Zm-14.5988004-3.71455h14.5705201V7.2516427l-6.2178802 4.35154c-.3089495.2192069-.6882.339861-1.0685997.339861-.3788376 0-.7572231-.120656-1.066163-.3398638L3.714739 7.2516427v7.3766513ZM5.136475 3.7145538l5.862392 4.1029706 5.8641366-4.1029706H5.1364751Z" fill="#1f343e"/>
    </g>
  </g>
</svg>
