<svg xmlns="http://www.w3.org/2000/svg" viewBox="0 0 32 32">
  <g data-name="Group 12260" transform="translate(-464 -473)">
    <circle data-name="Ellipse 221" cx="16" cy="16" r="16" transform="translate(464 473)" fill="#8cd943"/>
    <path data-name="Ellipse 221 - Outline" d="M480 474a15 15 0 0 0-10.607 25.607 15.0005633 15.0005633 0 1 0 21.214-21.214A14.9 14.9 0 0 0 480 474m0-1a16 16 0 1 1-16 16 16 16 0 0 1 16-16Z" fill="#1f343e"/>
    <path data-name="Icon awesome-check" d="m477.434 494.731-5.2-5.2a.8.8 0 0 1 0-1.131l1.132-1.131a.8.8 0 0 1 1.131 0l3.5 3.5 7.5-7.5a.8.8 0 0 1 1.131 0l1.131 1.131a.8.8 0 0 1 0 1.131l-9.2 9.2a.8.8 0 0 1-1.125 0Z" fill="#fff"/>
    <path data-name="Icon awesome-check - Outline" d="M478 494.966a.8.8 0 0 0 .566-.234l9.2-9.2a.8.8 0 0 0 0-1.131l-1.132-1.132a.8.8 0 0 0-1.131 0L478 490.771l-3.5-3.5a.8.8 0 0 0-1.131 0l-1.135 1.129a.8.8 0 0 0 0 1.131l5.2 5.2a.8.8 0 0 0 .566.235m0 1a1.788 1.788 0 0 1-1.273-.527l-5.2-5.2a1.8 1.8 0 0 1 0-2.546l1.132-1.136a1.8 1.8 0 0 1 2.541 0l2.8 2.8 6.8-6.8a1.8 1.8 0 0 1 2.546 0l1.131 1.131a1.8 1.8 0 0 1 0 2.546l-9.2 9.2a1.788 1.788 0 0 1-1.277.532Z" fill="#1f343e"/>
  </g>
</svg>
