<svg xmlns="http://www.w3.org/2000/svg" viewBox="0 0 144 107">
  <g data-name="Get voucher img">
    <g data-name="Group 12237" fill="#fd6f71">
      <path data-name="Path 21125" d="M6.649 37.926v25.461a6.693 6.693 0 0 0 6.693 6.691h9.224l4.167-32.152Z"/>
      <path data-name="Path 21126" d="m26.626 28.356-4.06-26.715h-9.224a6.693 6.693 0 0 0-6.693 6.693v20.023Z"/>
    </g>
    <g data-name="Group 12239" fill="#ed6f82">
      <path data-name="Path 21129" d="m73.038 32.467-45.073 5.461 4.166 32.152h71.535a6.693 6.693 0 0 0 6.693-6.691V37.926Z"/>
      <path data-name="Path 21130" d="M103.667 1.641H32.131l-4.059 26.715 44.966 4.115 37.321-4.115V8.333a6.693 6.693 0 0 0-6.692-6.692Z"/>
    </g>
    <g data-name="Group 12240" fill="#f8cc5d">
      <path data-name="Rectangle 4394" d="M22.565 1.64h9.575v68.436h-9.575z"/>
      <path data-name="Rectangle 4395" d="M6.641 28.353h103.717v9.576H6.641z"/>
    </g>
    <path data-name="Path 21131" d="M21.548 38.467C7.171 51.692 1.641 43.477 1.641 33.132s5.53-18.56 19.907-5.334Z" fill="#f8f4f9"/>
    <path data-name="Path 21133" d="M33.157 38.467c14.377 13.225 19.907 5.01 19.907-5.334s-5.53-18.56-19.907-5.334Z" fill="#f8f4f9"/>
    <path data-name="Path 21135" d="M28.663 26.155h-2.62a6.977 6.977 0 0 0-6.977 6.977 6.977 6.977 0 0 0 6.977 6.977h2.62a6.977 6.977 0 0 0 6.977-6.977 6.977 6.977 0 0 0-6.977-6.977Z" fill="#f8f4f9"/>
    <path data-name="Path 21136" d="M59.719 53.587a1.641 1.641 0 0 0 1.641-1.641v-3.2a1.641 1.641 0 0 0-3.282 0v3.2a1.64 1.64 0 0 0 1.641 1.641Z" fill="#1f343e"/>
    <path data-name="Path 21137" d="M95.094 53.587a1.641 1.641 0 0 0 1.641-1.641v-3.2a1.641 1.641 0 0 0-3.282 0v3.2a1.641 1.641 0 0 0 1.641 1.641Z" fill="#1f343e"/>
    <path data-name="Path 21138" d="M77.407 55.295a7.414 7.414 0 0 0 5.6-2.493 1.641 1.641 0 1 0-2.471-2.16 4.261 4.261 0 0 1-6.262 0 1.641 1.641 0 1 0-2.471 2.16 7.415 7.415 0 0 0 5.604 2.493Z" fill="#1f343e"/>
    <path data-name="Path 21139" d="M103.667 0H13.341a8.342 8.342 0 0 0-8.333 8.333v12.1C1.845 22.416 0 26.914 0 33.132s1.845 10.716 5.008 12.7v17.557a8.341 8.341 0 0 0 8.333 8.331h90.326A8.341 8.341 0 0 0 112 63.387V8.333A8.342 8.342 0 0 0 103.667 0Zm5.051 8.333v18.38h-8.95a1.641 1.641 0 1 0 0 3.281h8.951v6.293h-54.19c0-.02 0-.041.006-.062a28.61 28.61 0 0 0 0-6.232h38.67a1.641 1.641 0 0 0 0-3.281H53.9c-1.03-3.677-2.994-6.083-5.729-7a8.2 8.2 0 0 0-3.269-.372c-2.894.237-6.225 1.833-9.957 4.773q-.592.466-1.168.952V3.281h69.888a5.057 5.057 0 0 1 5.054 5.052Zm-63.5 35.33a11.461 11.461 0 0 1-4.854-1.748c-.438-.253-5.019-3.342-4.859-3.551a8.6 8.6 0 0 0 1.684-4.025c.007-.045.014-.091.02-.137a42.993 42.993 0 0 1 10.007-1.293 1.641 1.641 0 0 0 0-3.281 45.9 45.9 0 0 0-10.24 1.256 8.827 8.827 0 0 0-.383-1.111 8.6 8.6 0 0 0-1.087-1.871c4.164-3.586 7.769-5.424 10.393-5.306 4.507.2 5.418 6.395 5.51 9.825.1 3.761-.5 11.257-5.762 11.257q-.211-.001-.425-.015Zm-14.829-5.494a5.2 5.2 0 0 1-1.725.3h-2.63a5.4 5.4 0 0 1-5.315-4.975c0-.025 0-.05-.006-.076a5.408 5.408 0 0 1 5.328-5.622h2.62a5.33 5.33 0 0 1 1.732 10.372Zm.1-13.456h-.016a8.347 8.347 0 0 0-1.82-.2h-2.62a8.632 8.632 0 0 0-1.82.2h-.016V3.281H30.5v21.432ZM8.29 19.342V8.333a5.057 5.057 0 0 1 5.052-5.052h7.583v21.781l-.06-.049c-3.394-2.853-7.823-6.073-12.5-5.676Zm-5.008 13.79c0-8.994 3.731-10.363 5.386-10.526 3.684-.362 7 2.379 9.66 4.563.069.057.863.737.868.731a8.6 8.6 0 0 0-1.088 1.871c-.042.1-.383 1.112-.383 1.112a45.884 45.884 0 0 0-10.242-1.257 1.641 1.641 0 0 0 0 3.281A43 43 0 0 1 17.49 34.2c.006.046.013.091.02.137a8.674 8.674 0 0 0 1.684 4.025c-.1.088-.2.177-.307.264-4.148 3.511-7.7 5.244-10.283 5.025-1.684-.191-5.323-1.638-5.323-10.519ZM22.565 58.5a1.641 1.641 0 0 0-1.641 1.641v8.3h-7.583a5.056 5.056 0 0 1-5.052-5.049V46.926a7.169 7.169 0 0 0 1.148.022c2.49-.105 5.316-1.247 8.454-3.417 1.048-.725 2.056-1.51 3.032-2.33v12.376a1.641 1.641 0 1 0 3.281 0V41.551h.017a8.337 8.337 0 0 0 1.787.194h2.684a9.269 9.269 0 0 0 1.788-.194h.016v26.885H24.2v-8.3a1.641 1.641 0 0 0-1.636-1.635Zm86.154 4.886a5.056 5.056 0 0 1-5.051 5.049H33.779V41.201l.062.051c3.329 2.8 7.2 5.715 11.761 5.705a8.2 8.2 0 0 0 7.157-4.511 14.268 14.268 0 0 0 1.137-2.877h54.823Z" fill="#1f343e"/>
    <g data-name="gift-card (1)">
      <path data-name="Path 21140" d="M131.5 104.5h-103a10 10 0 0 1-10-10v-66a10 10 0 0 1 10-10h103a10 10 0 0 1 10 10v66a10 10 0 0 1-10 10Z" fill="#8cd943"/>
      <g data-name="Group 12241" fill="#fff">
        <path data-name="Path 21141" d="m103.529 62.922 15.486 27.526 2.248-8.4 8.4 2.255-12-21.377Z"/>
        <path data-name="Path 21142" d="M102.429 61.5 88.988 84.777l-2.248-8.4-8.4 2.255 7.829-13.878Z"/>
      </g>
      <path data-name="Path 21143" d="M104.661 61.509h-1.283a5.134 5.134 0 0 1-5.134-5.134v-5.348a5.134 5.134 0 0 1 5.134-5.134h1.283a5.134 5.134 0 0 1 5.134 5.134v5.348a5.134 5.134 0 0 1-5.134 5.134Z" fill="#f8cc5d"/>
      <g data-name="Group 12242" fill="#fff">
        <path data-name="Path 21144" d="m99.33 47.101-14.317-6.755a5.134 5.134 0 0 0-7.325 4.643v17.516a5.134 5.134 0 0 0 7.325 4.643l14.317-6.755"/>
        <path data-name="Path 21145" d="m108.671 60.394 14.318 6.754a5.134 5.134 0 0 0 7.325-4.643V44.989a5.134 5.134 0 0 0-7.325-4.643l-14.317 6.755"/>
      </g>
      <path data-name="Path 21146" d="M131.5 16h-103A12.514 12.514 0 0 0 16 28.5v66A12.514 12.514 0 0 0 28.5 107h38.75a2.5 2.5 0 0 0 0-5H28.5a7.509 7.509 0 0 1-7.5-7.5V64h54.335a7.592 7.592 0 0 0 3.4 4.953 7.68 7.68 0 0 0 1.843.849l-4.4 7.569a2.5 2.5 0 0 0 2.809 3.671l5.986-1.607 1.6 5.988a2.5 2.5 0 0 0 4.58.6l11.4-19.742 14.28 25.388a2.5 2.5 0 0 0 4.594-.579l1.6-5.988 5.986 1.607a2.5 2.5 0 0 0 2.823-3.649l-7.352-12.955c.232.021.465.035.7.035a7.649 7.649 0 0 0 7.481-6.14H139v30.5a7.509 7.509 0 0 1-7.5 7.5h-25V88.5a2.5 2.5 0 1 0-5 0V102H88.509a2.5 2.5 0 0 0 0 5H131.5A12.514 12.514 0 0 0 144 94.5v-66A12.514 12.514 0 0 0 131.5 16Zm-24.2 35.027v5.348a2.637 2.637 0 0 1-2.634 2.634h-1.288a2.637 2.637 0 0 1-2.634-2.634v-5.348a2.637 2.637 0 0 1 2.634-2.634h1.284a2.637 2.637 0 0 1 2.638 2.634ZM21 28.5a7.509 7.509 0 0 1 7.5-7.5h73v21.417a2.485 2.485 0 0 0 .28 1.146 7.589 7.589 0 0 0-2.243.871l-13.458-6.349a7.634 7.634 0 0 0-10.891 6.9V59H21Zm59.188 16.489a2.634 2.634 0 0 1 3.758-2.382l12.266 5.787a7.6 7.6 0 0 0-.468 2.633v5.348a7.587 7.587 0 0 0 .5 2.71l-12.3 5.8a2.634 2.634 0 0 1-3.758-2.382V44.989ZM89.843 78.3l-.688-2.571a2.5 2.5 0 0 0-3.063-1.769l-2.545.683 3.235-5.563 11.523-5.436Zm32.064 1.331a2.5 2.5 0 0 0-3.063 1.768l-.663 2.477-11.35-20.183a7.585 7.585 0 0 0 1.566-.665l8.632 4.073 7.51 13.233Zm5.9-17.124a2.634 2.634 0 0 1-3.758 2.382L111.79 59.1a7.594 7.594 0 0 0 .5-2.726v-5.348a7.6 7.6 0 0 0-.474-2.648l12.233-5.772a2.634 2.634 0 0 1 3.758 2.382v17.516Zm5-3.5V44.989a7.634 7.634 0 0 0-10.892-6.9l-13.436 6.339a7.581 7.581 0 0 0-2.26-.869 2.487 2.487 0 0 0 .276-1.138V21h25a7.509 7.509 0 0 1 7.5 7.5V59Z" fill="#1f343e"/>
      <path data-name="Path 21147" d="M77.687 102a2.5 2.5 0 1 0 1.767.732 2.519 2.519 0 0 0-1.767-.732Z" fill="#1f343e"/>
      <path data-name="Path 21148" d="M68.875 29.5H32a2.5 2.5 0 0 0 0 5h36.875a2.5 2.5 0 0 0 0-5Z" fill="#1f343e"/>
      <path data-name="Path 21149" d="M68.875 86H32a2.5 2.5 0 0 0 0 5h36.875a2.5 2.5 0 0 0 0-5Z" fill="#1f343e"/>
      <path data-name="Path 21150" d="M47.5 43H32a2.5 2.5 0 0 0 0 5h15.5a2.5 2.5 0 0 0 0-5Z" fill="#1f343e"/>
      <path data-name="Path 21151" d="M57.172 43a2.5 2.5 0 1 0 1.768.732A2.515 2.515 0 0 0 57.172 43Z" fill="#1f343e"/>
    </g>
  </g>
</svg>
